<svg width="55" height="55" viewBox="0 0 55 55" fill="none" xmlns="http://www.w3.org/2000/svg">
<g clip-path="url(#clip0_4_76)">
<path d="M15.9379 -7.62939e-06C17.4321 -7.62939e-06 18.9263 0.215677 20.3493 0.64705C21.5589 1.07842 22.6973 1.83332 23.7646 2.91175C24.6895 3.99019 25.4722 5.39215 25.9702 7.0098C26.5395 9.05882 26.8241 11.2157 26.7529 13.3725C26.8241 15.7451 26.3972 18.1176 25.6145 20.1667C24.7607 22.1078 23.5511 23.6176 22.1992 24.5882C24.1203 25.3431 25.7568 27.1765 26.8241 29.549C27.8913 32.1372 28.3894 35.1568 28.3894 38.1765C28.3894 40.6568 28.1048 43.0294 27.3933 45.1863C26.7529 47.1274 25.8279 48.7451 24.7607 50.1471C23.6223 51.4412 22.2704 52.4118 20.9185 52.951C19.4955 53.598 18.0013 53.8137 16.5071 53.8137H0V-0.107849H15.9379V-7.62939e-06ZM14.9418 21.7843C16.0802 21.8921 17.2898 21.3529 18.2147 20.2745C19.1397 19.0882 19.6378 17.2549 19.4955 15.3137C19.4955 14.2353 19.3532 13.1569 19.0686 12.1863C18.784 11.4314 18.4282 10.7843 17.9301 10.3529C17.4321 9.92156 16.8629 9.49018 16.2937 9.38234C15.6533 9.16666 15.0129 9.16666 14.3726 9.16666H7.39974V21.7843H14.9418ZM15.3687 44.8627C16.0802 44.8627 16.7917 44.7549 17.4321 44.5392C18.0724 44.3235 18.6417 43.8921 19.2109 43.3529C19.7089 42.8137 20.1358 42.0588 20.4204 41.1961C20.7762 40.1176 20.9185 38.9314 20.8473 37.7451C20.9897 35.4804 20.4204 33.3235 19.3532 31.8137C18.2147 30.5196 16.8629 29.9804 15.4398 30.0882H7.39974V44.9706H15.3687V44.8627Z" fill="#191919"/>
<path d="M38.9198 44.647C40.1294 46.2647 41.6947 47.1275 43.2601 47.0196C44.5408 47.0196 45.7503 46.4804 46.7465 45.402C47.6003 44.5392 48.1695 43.3529 48.5253 41.951H54.4308C53.7905 45.9412 52.2251 49.5 50.0906 51.9804C48.0272 54.1372 45.5369 55.1078 42.9754 55C41.1967 55 39.4179 54.5686 37.7102 53.4902C36.2161 52.5196 34.8642 51.1176 33.7969 49.2843C32.7297 47.3431 31.8758 45.1863 31.3066 42.8137C30.6663 40.1176 30.3817 37.3137 30.4528 34.5098C30.4528 31.7059 30.7374 29.0098 31.3778 26.3137C33.0854 18.7647 37.7814 13.6961 43.0466 13.8039C44.9677 13.6961 46.8176 14.451 48.5253 15.7451C50.0194 17.0392 51.3713 18.7647 52.3674 20.9216C53.3636 23.1863 54.1462 25.6667 54.502 28.3627C54.9289 31.1667 55.0712 34.1863 55 37.098H37.3545C37.141 39.7941 37.7102 42.4902 38.9198 44.647ZM46.6042 24.049C45.608 22.5392 44.2562 21.7843 42.8331 21.8922C41.9082 21.8922 40.9832 22.1078 40.2005 22.7549C39.5602 23.2941 38.991 24.049 38.4929 24.9118C38.066 25.7745 37.7814 26.6372 37.5679 27.7157C37.4256 28.5784 37.2833 29.4412 37.2833 30.3039H48.2407C48.0983 28.0392 47.5291 25.8824 46.6042 24.049Z" fill="#191919"/>
<path d="M49.5213 3.55881H35.8603V8.84311H49.5213V3.55881Z" fill="#191919"/>
</g>
<defs>
<clipPath id="clip0_4_76">
<rect width="55" height="55" fill="white"/>
</clipPath>
</defs>
</svg>
