<svg width="207" height="55" viewBox="0 0 207 55" fill="none" xmlns="http://www.w3.org/2000/svg">
<path fill-rule="evenodd" clip-rule="evenodd" d="M203.722 30.0191C204.116 29.5572 204.905 29.5572 205.299 30.1114L206.778 32.0511C207.074 32.4206 207.074 32.9748 206.778 33.3442C204.116 36.5771 199.581 39.6251 193.962 39.9022C189.624 40.1793 185.976 38.6091 184.004 35.6534C183.61 35.0992 182.723 35.0068 182.328 35.561C179.962 38.5168 177.202 40.8259 174.244 40.9183C169.019 41.1954 167.54 37.8702 168.822 30.6656C168.921 29.9267 168.23 29.3725 167.54 29.5572C166.456 29.8343 165.273 29.9267 164.09 29.8343C163.597 29.8343 163.104 30.1114 163.005 30.4809C161.034 36.4847 156.499 42.0267 150.485 42.3038C146.64 42.4885 141.02 40.4564 141.513 31.8664C141.513 31.1274 140.922 30.6656 140.232 30.8503C139.049 31.2198 137.767 31.3122 136.485 31.2198C135.992 31.2198 135.499 31.4969 135.401 31.8664C133.429 37.8702 128.894 43.4122 122.88 43.6893C119.035 43.874 113.416 41.8419 113.909 33.2519C113.909 32.5129 113.317 32.0511 112.627 32.2358C111.444 32.6053 110.163 32.6977 108.881 32.6053C108.388 32.6053 107.895 32.8824 107.796 33.2519C105.825 39.2557 101.29 44.7977 95.2758 45.0748C92.5154 45.2595 88.8676 44.2435 87.1917 40.5488C86.8959 39.8099 85.91 39.7175 85.4171 40.3641C83.051 43.4122 80.1919 45.7213 77.2343 45.9061C74.1781 46.0908 72.5021 44.89 71.7134 42.858C71.4177 42.119 70.5304 41.9343 69.9389 42.4885C67.8685 44.7977 65.4038 46.4603 63.0377 46.645C59.2914 46.8297 57.1225 44.2435 57.0239 41.103C56.8267 37.4084 58.5027 33.1595 60.3759 28.4488C60.6716 27.8023 60.1787 27.0633 59.4886 27.0633C58.4041 27.0633 57.1225 26.8786 56.038 26.6939C55.5451 26.6015 54.9536 26.8786 54.855 27.4328C52.5875 34.9145 49.2355 42.2114 46.2779 46.5526C45.9821 47.0145 45.292 47.1992 44.7991 46.8297L42.6301 45.3519C42.1372 45.0748 42.0386 44.4282 42.3344 43.9664C46.475 37.6855 50.2214 27.8946 51.503 20.6901C51.6016 20.2282 51.9959 19.8588 52.4889 19.8588L55.4465 19.674C56.1366 19.674 56.6296 20.2282 56.531 20.8748V20.9672C56.4324 21.5214 56.8267 22.0756 57.4183 22.1679C60.0801 22.5374 63.925 22.5374 66.5869 22.445C67.3756 22.445 67.8685 23.1839 67.5728 23.8305C65.4038 29.1878 62.5448 36.5771 62.742 39.4404C62.8406 40.7335 63.4321 41.4725 64.5165 41.3801C66.5869 41.2877 69.8403 37.316 72.305 32.9748C72.305 32.8824 72.4035 32.79 72.4035 32.6977C73.1922 29.2801 74.4739 25.4007 75.6569 21.5214L75.7555 21.2443C75.8541 20.8748 76.2484 20.5977 76.6428 20.5053L80.1919 20.3206C80.8821 20.3206 81.4736 20.9672 81.2764 21.6137C81.0792 22.1679 80.8821 22.7221 80.7835 23.2763C77.7273 32.79 75.0654 40.7335 78.6145 40.5488C80.882 40.4564 84.1354 36.7618 86.8959 31.6816C86.8959 31.5893 86.9945 31.4969 86.9945 31.4045C87.0931 30.758 87.2902 30.0191 87.4874 29.2801C89.0648 23.1839 90.938 17.1801 92.8111 11.1763C93.4027 9.329 93.9942 7.48167 94.4871 5.63435C94.5857 5.26488 94.9801 4.89541 95.473 4.89541L99.1207 4.71068C99.8108 4.71068 100.402 5.35725 100.205 6.00381C98.7264 10.2527 97.2476 14.6862 95.8673 19.0275C95.5716 19.9511 96.656 20.6901 97.4447 20.1359C98.825 19.2122 100.501 18.658 102.078 18.5656C106.12 18.3809 108.881 21.429 109.177 26.1397C109.177 26.4168 109.177 26.6939 109.177 26.971C109.177 27.5252 109.571 27.8946 110.163 27.987C112.036 28.1717 114.007 27.6175 115.486 26.3244C115.683 26.232 115.782 26.0473 115.782 25.8626C117.261 20.413 118.937 15.0557 120.613 9.6061C121.204 7.75877 121.697 5.91144 122.289 4.06412C122.387 3.69465 122.782 3.32519 123.275 3.32519L126.922 3.14046C127.612 3.14046 128.204 3.78702 128.007 4.43358C126.528 8.68243 125.049 13.116 123.669 17.4572C123.373 18.3809 124.458 19.1198 125.246 18.5656C126.627 17.642 128.303 17.0878 129.88 16.9954C133.922 16.8107 136.683 19.8588 136.978 24.5694C136.978 24.8465 136.978 25.1236 136.978 25.4007C136.978 25.9549 137.373 26.3244 137.964 26.4168C139.837 26.6015 141.809 26.0473 143.288 24.7542C143.485 24.6618 143.584 24.4771 143.584 24.2923C145.062 18.8427 146.738 13.4855 148.414 8.03587C149.006 6.18854 149.499 4.34122 150.09 2.49389C150.189 2.12443 150.583 1.75496 151.076 1.75496L154.724 1.57023C155.414 1.57023 156.006 2.21679 155.808 2.86336C154.33 7.11221 152.851 11.5458 151.471 15.887C151.175 16.8107 152.259 17.5496 153.048 16.9954C154.428 16.0717 156.104 15.5175 157.682 15.4252C161.724 15.2404 164.484 18.2885 164.78 22.9992C164.78 23.2763 164.78 23.5534 164.78 23.8305C164.78 24.3847 165.174 24.7542 165.766 24.8465C167.639 25.0313 169.512 24.4771 170.991 23.3687C171.188 23.2763 171.287 23.0916 171.287 22.8145C172.963 16.7183 175.526 8.59007 177.892 0.923663C177.991 0.554198 178.385 0.277099 178.779 0.184733L182.328 0C183.019 0 183.61 0.646564 183.413 1.29313C180.061 11.6382 177.399 20.5977 175.92 25.9549C173.949 33.1595 173.85 35.2839 176.117 35.0992C177.991 35.0068 180.554 32.5129 182.92 28.7259C183.019 28.5412 183.019 28.4488 183.117 28.2641C183.413 20.6901 188.441 13.7626 195.835 13.3931C200.764 13.116 203.525 16.6259 203.722 20.0435C204.116 26.6015 197.117 30.8504 190.413 30.4809C189.624 30.3885 189.032 31.2198 189.427 31.8664C190.413 33.7137 192.384 34.8221 195.736 34.6374C198.201 35.0068 201.652 32.3282 203.722 30.0191ZM92.5154 31.8664C90.938 37.8702 92.8111 40.1793 95.3744 40.087C99.5151 39.9022 103.459 32.79 103.163 27.3404C103.064 24.9389 101.585 23.7381 99.8108 23.8305C96.8532 24.0152 93.797 27.0633 92.5154 31.8664ZM120.12 30.3885C118.542 36.3923 120.416 38.7015 122.979 38.6091C127.12 38.4244 131.063 31.3122 130.767 25.8626C130.669 23.461 129.19 22.2603 127.415 22.3526C124.556 22.5374 121.401 25.5855 120.12 30.3885ZM147.823 28.9107C146.245 34.9145 148.119 37.2236 150.682 37.1313C154.823 36.9465 158.766 29.8343 158.47 24.3847C158.372 21.9832 156.893 20.7824 155.118 20.8748C152.161 21.0595 149.105 24.1076 147.823 28.9107ZM197.807 21.0595C197.807 19.4893 196.722 18.3809 195.046 18.4733C191.793 18.658 189.23 21.9832 188.342 26.0473C188.244 26.6939 188.737 27.2481 189.427 27.2481C193.666 27.1557 197.905 24.4771 197.807 21.0595ZM43.8132 24.0152C43.4188 11.8229 34.9403 3.78702 22.4197 4.24885C16.9974 4.43358 10.885 6.37328 6.25138 9.69846C5.85703 9.97556 5.65986 10.6221 5.95562 11.084L7.92737 14.0397C8.22313 14.5939 9.01183 14.6862 9.50477 14.3168C13.0539 11.5458 17.7861 9.79083 22.4197 9.6061C30.9968 9.23663 37.3064 14.4091 37.6022 24.2923C38.0951 35.8381 29.8138 49.0465 16.5045 49.7854C16.0115 49.7854 15.5186 49.7854 15.0257 49.7854C14.3355 49.7854 13.8426 49.1389 14.0398 48.4923C16.6031 38.7939 19.5607 28.3565 22.6169 18.658C22.8141 18.0114 22.3211 17.2725 21.5324 17.3649L17.7861 17.642C17.3918 17.642 16.9974 17.9191 16.8002 18.3809C13.8426 27.8946 10.885 38.2397 8.32172 47.9381C8.12454 48.4923 7.53302 48.8618 7.04008 48.677C5.65986 48.2152 4.37822 47.7534 3.29376 47.1068C2.80082 46.8297 2.11071 47.0145 1.81495 47.5687L0.138963 50.8015C-0.156799 51.2633 0.0403755 51.9099 0.533313 52.0946C4.27963 54.1267 10.0963 55.2351 15.9129 54.958C34.9403 53.9419 44.3061 37.5007 43.8132 24.0152ZM81.1778 9.0519C78.9103 9.14427 76.84 11.6382 76.9386 14.132C77.0371 15.7946 78.2202 16.9954 79.9948 16.903C82.2623 16.8107 84.4312 14.2244 84.3326 11.7305C84.234 10.0679 82.8538 8.95953 81.1778 9.0519Z" fill="#0D0C22"/>
</svg>
