<svg width="1106" height="1112" viewBox="0 0 1106 1112" fill="none" xmlns="http://www.w3.org/2000/svg">
<path d="M331.527 542C475.527 385 597.027 359.5 697.027 120H1037.03L1040.03 320C864.026 426.5 840.091 584.889 792.026 739C697.527 1042 407.027 945.933 378.027 935.5C227.572 881.373 187.527 699 331.527 542Z" fill="#FF7200" fill-opacity="0.27"/>
<path d="M201.292 547.351C521.875 291.361 692.464 0 692.464 0H1106V446.036C1106 446.036 972.38 584.418 957.592 716.004C942.804 847.591 834.006 1112 834.006 1112H39.1526C39.1526 1112 -119.29 803.341 201.292 547.351Z" fill="#FF7200" fill-opacity="0.27"/>
</svg>
